<svg width="960" height="720" viewBox="0 0 960 720" xmlns="http://www.w3.org/2000/svg" role="img" aria-labelledby="title desc">
  <title id="title">滴滴社群裂变首屏增长系统地图</title>
  <desc id="desc">以线下BD、团长承接、社群沉淀、标签分层和裂变放大构成100万用户私域增长系统。</desc>
  <defs>
    <linearGradient id="heroBg" x1="0" y1="0" x2="1" y2="1">
      <stop stop-color="#f6f9ff"/>
      <stop offset=".52" stop-color="#ffffff"/>
      <stop offset="1" stop-color="#fff7df"/>
    </linearGradient>
    <linearGradient id="blue" x1="0" y1="0" x2="1" y2="1">
      <stop stop-color="#2f6df6"/>
      <stop offset="1" stop-color="#0ea5e9"/>
    </linearGradient>
    <linearGradient id="yellow" x1="0" y1="0" x2="1" y2="1">
      <stop stop-color="#ffe776"/>
      <stop offset="1" stop-color="#fbbf24"/>
    </linearGradient>
    <filter id="softShadow" x="-20%" y="-20%" width="140%" height="140%">
      <feDropShadow dx="0" dy="18" stdDeviation="22" flood-color="#2563eb" flood-opacity=".14"/>
    </filter>
  </defs>
  <rect width="960" height="720" rx="42" fill="url(#heroBg)"/>
  <g opacity=".24" fill="#2563eb">
    <circle cx="88" cy="92" r="3"/>
    <circle cx="168" cy="92" r="3"/>
    <circle cx="248" cy="92" r="3"/>
    <circle cx="328" cy="92" r="3"/>
    <circle cx="408" cy="92" r="3"/>
    <circle cx="488" cy="92" r="3"/>
    <circle cx="568" cy="92" r="3"/>
    <circle cx="648" cy="92" r="3"/>
    <circle cx="728" cy="92" r="3"/>
    <circle cx="808" cy="92" r="3"/>
    <circle cx="128" cy="172" r="3"/>
    <circle cx="208" cy="172" r="3"/>
    <circle cx="288" cy="172" r="3"/>
    <circle cx="368" cy="172" r="3"/>
    <circle cx="448" cy="172" r="3"/>
    <circle cx="528" cy="172" r="3"/>
    <circle cx="608" cy="172" r="3"/>
    <circle cx="688" cy="172" r="3"/>
    <circle cx="768" cy="172" r="3"/>
    <circle cx="848" cy="172" r="3"/>
  </g>
  <text x="74" y="92" fill="#2563eb" font-family="Arial, sans-serif" font-size="22" font-weight="900" letter-spacing="2">PRIVATE TRAFFIC GROWTH MAP</text>
  <text x="74" y="138" fill="#111827" font-family="Arial, sans-serif" font-size="36" font-weight="900">从0到100W+的私域增长系统</text>
  <text x="74" y="178" fill="#5b6476" font-family="Arial, sans-serif" font-size="21" font-weight="700">线下BD + 团长承接 + 社群裂变 + ROI复盘</text>

  <g transform="translate(94 238)" filter="url(#softShadow)">
    <path d="M90 150C158 58 273 44 364 112C454 180 536 175 620 100C686 41 770 58 820 126" fill="none" stroke="#b8d4ff" stroke-width="8" stroke-linecap="round" stroke-dasharray="18 16"/>
    <path d="M136 252C238 318 352 316 458 254C564 192 684 204 774 282" fill="none" stroke="#f8d95f" stroke-width="8" stroke-linecap="round" stroke-dasharray="18 16"/>

    <g font-family="Arial, sans-serif">
      <g transform="translate(0 80)">
        <rect width="172" height="138" rx="26" fill="#ffffff" stroke="#bfdbfe" stroke-width="2"/>
        <circle cx="42" cy="42" r="24" fill="#e0edff"/>
        <text x="42" y="50" text-anchor="middle" fill="#2563eb" font-size="16" font-weight="900">01</text>
        <text x="30" y="88" fill="#111827" font-size="24" font-weight="900">BD获客</text>
        <text x="30" y="118" fill="#64748b" font-size="16" font-weight="700">线下种子用户</text>
      </g>

      <g transform="translate(196 10)">
        <rect width="172" height="138" rx="26" fill="#ffffff" stroke="#bfdbfe" stroke-width="2"/>
        <circle cx="42" cy="42" r="24" fill="#e0edff"/>
        <text x="42" y="50" text-anchor="middle" fill="#2563eb" font-size="16" font-weight="900">02</text>
        <text x="30" y="88" fill="#111827" font-size="24" font-weight="900">团长承接</text>
        <text x="30" y="118" fill="#64748b" font-size="16" font-weight="700">本地信任转化</text>
      </g>

      <g transform="translate(392 88)">
        <rect width="172" height="138" rx="26" fill="#ffffff" stroke="#bfdbfe" stroke-width="2"/>
        <circle cx="42" cy="42" r="24" fill="#e0edff"/>
        <text x="42" y="50" text-anchor="middle" fill="#2563eb" font-size="16" font-weight="900">03</text>
        <text x="30" y="88" fill="#111827" font-size="24" font-weight="900">社群沉淀</text>
        <text x="30" y="118" fill="#64748b" font-size="16" font-weight="700">可触达用户池</text>
      </g>

      <g transform="translate(588 18)">
        <rect width="172" height="138" rx="26" fill="#ffffff" stroke="#bfdbfe" stroke-width="2"/>
        <circle cx="42" cy="42" r="24" fill="#e0edff"/>
        <text x="42" y="50" text-anchor="middle" fill="#2563eb" font-size="16" font-weight="900">04</text>
        <text x="30" y="88" fill="#111827" font-size="24" font-weight="900">标签分层</text>
        <text x="30" y="118" fill="#64748b" font-size="16" font-weight="700">差异化触达</text>
      </g>

      <g transform="translate(690 216)">
        <rect width="172" height="138" rx="26" fill="#ffffff" stroke="#bfdbfe" stroke-width="2"/>
        <circle cx="42" cy="42" r="24" fill="#e0edff"/>
        <text x="42" y="50" text-anchor="middle" fill="#2563eb" font-size="16" font-weight="900">05</text>
        <text x="30" y="88" fill="#111827" font-size="24" font-weight="900">裂变放大</text>
        <text x="30" y="118" fill="#64748b" font-size="16" font-weight="700">低成本获客</text>
      </g>
    </g>

    <g transform="translate(170 286)" font-family="Arial, sans-serif">
      <rect width="440" height="102" rx="28" fill="#ffffff" stroke="#fde68a" stroke-width="2"/>
      <circle cx="58" cy="52" r="34" fill="url(#yellow)"/>
      <text x="58" y="62" text-anchor="middle" fill="#1f2937" font-size="24" font-weight="900">ROI</text>
      <text x="116" y="44" fill="#111827" font-size="24" font-weight="900">复盘复制</text>
      <text x="116" y="76" fill="#64748b" font-size="17" font-weight="700">把渠道、话术、物料和成本沉淀为下一轮SOP</text>
    </g>
  </g>

  <g transform="translate(74 628)" font-family="Arial, sans-serif">
    <rect width="178" height="58" rx="29" fill="url(#blue)"/>
    <text x="89" y="38" text-anchor="middle" fill="#ffffff" font-size="22" font-weight="900">100W+ C端</text>
    <rect x="202" width="156" height="58" rx="29" fill="#e0edff" stroke="#bfdbfe"/>
    <text x="280" y="38" text-anchor="middle" fill="#2563eb" font-size="22" font-weight="900">5W+ B端</text>
    <rect x="382" width="136" height="58" rx="29" fill="#fff3c4" stroke="#fde68a"/>
    <text x="450" y="38" text-anchor="middle" fill="#a16207" font-size="22" font-weight="900">1元成本</text>
    <rect x="542" width="128" height="58" rx="29" fill="#e8f7ef" stroke="#bbf7d0"/>
    <text x="606" y="38" text-anchor="middle" fill="#15803d" font-size="22" font-weight="900">ROI 1:5</text>
  </g>
</svg>
